<?xml version="1.0" encoding="utf-8"?>
<!-- Svg Vector Icons : http://www.onlinewebfonts.com/icon -->
<!DOCTYPE svg PUBLIC "-//W3C//DTD SVG 1.1//EN" "http://www.w3.org/Graphics/SVG/1.1/DTD/svg11.dtd">
<svg version="1.1" xmlns="http://www.w3.org/2000/svg" xmlns:xlink="http://www.w3.org/1999/xlink" x="0px" y="0px" viewBox="0 0 1000 1000" enable-background="new 0 0 1000 1000" xml:space="preserve">
<metadata> Svg Vector Icons : http://www.onlinewebfonts.com/icon </metadata>
<g><path d="M500,628.9c87.7,0,154.7-67.1,154.7-154.7V164.7C654.7,77.1,587.7,10,500,10c-87.7,0-154.7,67.1-154.7,154.7v309.5C345.3,561.9,412.3,628.9,500,628.9z M773.4,474.2c0,154.7-128.9,263.1-273.4,263.1c-144.4,0-273.4-108.3-273.4-263.1h-87.7c0,175.4,139.3,319.8,309.5,345.6V990h103.2V819.8C721.8,794,861.1,649.6,861.1,474.2H773.4L773.4,474.2z"/></g>
</svg>